<svg width="24" height="24" viewBox="0 0 24 24" fill="none" xmlns="http://www.w3.org/2000/svg">
<path d="M16.75 8C16.75 9.25978 16.2496 10.468 15.3588 11.3588C14.468 12.2496 13.2598 12.75 12 12.75C10.7402 12.75 9.53204 12.2496 8.64124 11.3588C7.75045 10.468 7.25 9.25978 7.25 8C7.25 6.74022 7.75045 5.53204 8.64124 4.64124C9.53204 3.75045 10.7402 3.25 12 3.25C13.2598 3.25 14.468 3.75045 15.3588 4.64124C16.2496 5.53204 16.75 6.74022 16.75 8Z" stroke="black" stroke-linejoin="bevel"/>
<path d="M4.42696 20.75C4.42696 20.75 2.40796 14.75 12 14.75C21.592 14.75 19.573 20.75 19.573 20.75" stroke="black" stroke-linejoin="bevel"/>
</svg>
