<svg width="24" height="24" viewBox="0 0 24 24" fill="none" xmlns="http://www.w3.org/2000/svg">
<g clip-path="url(#clip0_20_281)">
<path fill-rule="evenodd" clip-rule="evenodd" d="M17.9319 3.73802L14.7399 0.546021L0.420898 14.866L3.6129 18.057L3.9659 17.703C4.6849 16.984 5.7189 16.98 6.4319 17.693C7.1519 18.413 7.1589 19.473 6.4469 20.184L6.0929 20.538L9.2599 23.704L23.5799 9.38502L20.4129 6.21902L20.0589 6.57202C19.3339 7.29702 18.2589 7.31002 17.5519 6.60202C16.8429 5.89402 16.8549 4.81502 17.5779 4.09202L17.9319 3.73802ZM11.1719 6.70802L17.4689 13.029L18.5309 11.971L12.2349 5.65102L11.1719 6.70802Z" fill="black"/>
</g>
<defs>
<clipPath id="clip0_20_281">
<rect width="24" height="24" fill="white"/>
</clipPath>
</defs>
</svg>
