<svg width="24" height="24" viewBox="0 0 24 24" fill="none" xmlns="http://www.w3.org/2000/svg">
<path d="M15.25 15.25L20.75 20.75M10.25 17.25C11.1693 17.25 12.0795 17.0689 12.9288 16.7172C13.7781 16.3654 14.5497 15.8498 15.1997 15.1997C15.8498 14.5497 16.3654 13.7781 16.7172 12.9288C17.0689 12.0795 17.25 11.1693 17.25 10.25C17.25 9.33075 17.0689 8.4205 16.7172 7.57122C16.3654 6.72194 15.8498 5.95026 15.1997 5.30025C14.5497 4.65024 13.7781 4.13463 12.9288 3.78284C12.0795 3.43106 11.1693 3.25 10.25 3.25C8.39348 3.25 6.61301 3.9875 5.30025 5.30025C3.9875 6.61301 3.25 8.39348 3.25 10.25C3.25 12.1065 3.9875 13.887 5.30025 15.1997C6.61301 16.5125 8.39348 17.25 10.25 17.25Z" stroke="black"/>
</svg>
