<svg width="24" height="24" viewBox="0 0 24 24" fill="none" xmlns="http://www.w3.org/2000/svg">
<path fill-rule="evenodd" clip-rule="evenodd" d="M12 1.75C14.188 1.75 16.2865 2.61919 17.8336 4.16637C19.3808 5.71354 20.25 7.81196 20.25 10C20.25 13.036 17.602 16.964 12.34 21.866L12 22.183L11.305 21.533C6.279 16.786 3.75 12.966 3.75 10C3.75 7.81196 4.61919 5.71354 6.16637 4.16637C7.71354 2.61919 9.81196 1.75 12 1.75ZM12 6.25C11.138 6.25 10.3114 6.59241 9.7019 7.2019C9.09241 7.8114 8.75 8.63805 8.75 9.5C8.75 10.362 9.09241 11.1886 9.7019 11.7981C10.3114 12.4076 11.138 12.75 12 12.75C12.862 12.75 13.6886 12.4076 14.2981 11.7981C14.9076 11.1886 15.25 10.362 15.25 9.5C15.25 8.63805 14.9076 7.8114 14.2981 7.2019C13.6886 6.59241 12.862 6.25 12 6.25Z" fill="black"/>
</svg>
