<svg width="24" height="24" viewBox="0 0 24 24" fill="none" xmlns="http://www.w3.org/2000/svg">
<path fill-rule="evenodd" clip-rule="evenodd" d="M6.75007 8C6.75007 6.60761 7.30319 5.27226 8.28776 4.28769C9.27233 3.30312 10.6077 2.75 12.0001 2.75C13.3925 2.75 14.7278 3.30312 15.7124 4.28769C16.6969 5.27226 17.2501 6.60761 17.2501 8C17.2501 9.39239 16.6969 10.7277 15.7124 11.7123C14.7278 12.6969 13.3925 13.25 12.0001 13.25C10.6077 13.25 9.27233 12.6969 8.28776 11.7123C7.30319 10.7277 6.75007 9.39239 6.75007 8ZM4.16307 17.54C5.12307 15.464 7.62607 14.25 12.0001 14.25C16.3741 14.25 18.8761 15.464 19.8371 17.54C20.2901 18.52 20.3381 19.547 20.1521 20.49C20.1247 20.6318 20.0896 20.772 20.0471 20.91L19.9321 21.25H4.06807L3.95307 20.91C3.91052 20.772 3.87546 20.6318 3.84807 20.49C3.66207 19.547 3.71007 18.52 4.16307 17.54Z" fill="black"/>
</svg>
