<svg width="24" height="24" viewBox="0 0 24 24" fill="none" xmlns="http://www.w3.org/2000/svg">
<path d="M12 21.5C17.1667 16.6867 19.75 12.8533 19.75 10C19.75 7.94457 18.9335 5.97333 17.4801 4.51992C16.0267 3.06652 14.0554 2.25 12 2.25C9.94457 2.25 7.97333 3.06652 6.51992 4.51992C5.06652 5.97333 4.25 7.94457 4.25 10C4.25 12.8533 6.83333 16.6867 12 21.5Z" stroke="black"/>
<path d="M14.75 9.5C14.75 10.2293 14.4603 10.9288 13.9445 11.4445C13.4288 11.9603 12.7293 12.25 12 12.25C11.2707 12.25 10.5712 11.9603 10.0555 11.4445C9.53973 10.9288 9.25 10.2293 9.25 9.5C9.25 8.77065 9.53973 8.07118 10.0555 7.55546C10.5712 7.03973 11.2707 6.75 12 6.75C12.7293 6.75 13.4288 7.03973 13.9445 7.55546C14.4603 8.07118 14.75 8.77065 14.75 9.5Z" stroke="black" stroke-linecap="round" stroke-linejoin="bevel"/>
</svg>
