<svg width="24" height="24" viewBox="0 0 24 24" fill="none" xmlns="http://www.w3.org/2000/svg">
<path fill-rule="evenodd" clip-rule="evenodd" d="M3.99989 10.25C3.99989 8.5924 4.65837 7.00268 5.83047 5.83058C7.00258 4.65848 8.59229 4 10.2499 4C11.9075 4 13.4972 4.65848 14.6693 5.83058C15.8414 7.00268 16.4999 8.5924 16.4999 10.25C16.4999 11.9076 15.8414 13.4973 14.6693 14.6694C13.4972 15.8415 11.9075 16.5 10.2499 16.5C8.59229 16.5 7.00258 15.8415 5.83047 14.6694C4.65837 13.4973 3.99989 11.9076 3.99989 10.25ZM10.2499 2.5C9.00719 2.50006 7.78273 2.79895 6.67978 3.37146C5.57682 3.94398 4.62771 4.77334 3.91249 5.78958C3.19727 6.80583 2.73692 7.97916 2.57026 9.21063C2.4036 10.4421 2.53552 11.6956 2.95489 12.8654C3.37426 14.0352 4.06879 15.087 4.97989 15.9321C5.891 16.7772 6.99197 17.3908 8.18995 17.7211C9.38793 18.0515 10.6478 18.0889 11.8633 17.8303C13.0787 17.5716 14.2142 17.0245 15.1739 16.235L20.2199 21.28L21.2799 20.22L16.2349 15.174C17.1682 14.0397 17.7599 12.6635 17.941 11.2058C18.1222 9.74809 17.8853 8.26893 17.2581 6.94068C16.6309 5.61242 15.6391 4.48977 14.3983 3.70356C13.1575 2.91734 11.7188 2.49994 10.2499 2.5Z" fill="black"/>
</svg>
