<svg width="122" height="34" viewBox="0 0 122 34" fill="none" xmlns="http://www.w3.org/2000/svg">
<g clip-path="url(#clip0_20_313)">
<path d="M16.5351 33.8891H19.4921V20.6661H16.5351V33.8891ZM38.6011 33.8891H51.1961V31.6761H41.5761V28.4121H47.9321V26.1971H41.5751V22.9001H50.9031V20.6671H38.6011V33.8891ZM64.0691 24.5991C64.0698 25.2418 63.8524 25.6671 63.4171 25.8751C62.9046 26.0999 62.3484 26.2072 61.7891 26.1891H56.4041V22.9191H61.7891C62.3551 22.9001 62.9171 23.0301 63.4171 23.2961C63.6365 23.4309 63.8138 23.6243 63.9291 23.8546C64.0443 24.0848 64.0928 24.3427 64.0691 24.5991ZM67.0351 24.5991C67.0351 23.1611 66.5824 22.1521 65.6771 21.5721C64.7678 20.9921 63.4078 20.7021 61.5971 20.7021H53.4371V33.8731H56.4111L56.4041 28.4131H61.5981C63.4094 28.4131 64.7694 28.1375 65.6781 27.5861C66.5848 27.0361 67.0364 26.0405 67.0351 24.5991ZM68.8231 33.9051H81.8431V31.6921H71.7451V20.6591L68.8231 20.6661V33.9051ZM84.0671 33.8891H96.6601V31.6761H87.0381V28.4001H93.3941V26.1851H87.0401V22.9001H96.3671V20.6671H84.0671V33.8891ZM14.8771 22.1061C14.2431 21.7236 13.5673 21.4149 12.8631 21.1861C12.257 20.972 11.6333 20.8113 10.9991 20.7061C10.2284 20.5707 9.44762 20.5001 8.66509 20.4951C7.58209 20.4941 6.50509 20.6351 5.45809 20.9151C4.46746 21.1763 3.53005 21.6085 2.68809 22.1921C1.89345 22.7475 1.22882 23.4688 0.740089 24.3061C0.232718 25.2024 -0.0223178 26.2195 0.00208938 27.2491C-0.0188335 28.2809 0.235929 29.2996 0.740089 30.2001C1.21966 31.0379 1.87213 31.764 2.65409 32.3301C3.46211 32.9126 4.37421 33.3348 5.34109 33.5741C6.33409 33.8441 7.35709 33.9871 8.38709 33.9981C9.28209 34.0081 10.1771 33.9321 11.0571 33.7681C11.8151 33.6181 12.5601 33.4081 13.2841 33.1411C13.2841 33.1411 14.0541 32.8281 14.9541 32.3511L13.1871 30.5911C12.8102 30.7932 12.4219 30.9732 12.0241 31.1301C11.4661 31.3401 10.8954 31.5055 10.3121 31.6261C9.61909 31.7631 8.91409 31.8331 8.20709 31.8361C7.55595 31.8361 6.90916 31.73 6.29209 31.5221C5.67921 31.3191 5.1095 31.0037 4.61209 30.5921C4.12124 30.1864 3.71604 29.687 3.42009 29.1231C3.11062 28.5254 2.9546 27.8601 2.96609 27.1871C2.95313 26.5247 3.0913 25.8681 3.37009 25.2671C3.63222 24.7132 4.02311 24.2301 4.51009 23.8581C5.02761 23.465 5.61549 23.1745 6.24209 23.0021C6.95803 22.8059 7.69779 22.7104 8.44009 22.7181C9.14509 22.7131 9.85009 22.7681 10.5451 22.8841C10.8498 22.9428 11.1328 23.0095 11.3941 23.0841C11.9971 23.2701 12.5741 23.5341 13.1081 23.8681L14.8771 22.1061ZM98.0201 20.6601L111.094 33.8401H114.714L101.631 20.6601H98.0201Z" fill="white"/>
<path d="M114.714 20.66L101.641 33.84H98.021L111.104 20.66H114.714ZM36.34 33.858V20.635H33.776V30.195L24.323 20.643V20.635H21.759V33.858H24.323V24.324L33.776 33.855V33.859H36.339M117.089 21.414C117.028 21.4313 116.964 21.4388 116.9 21.436H116.728V21.045H116.891C116.971 21.0394 117.051 21.0531 117.125 21.085C117.151 21.1022 117.171 21.1261 117.184 21.154C117.197 21.1827 117.202 21.2127 117.197 21.244C117.199 21.2802 117.19 21.3162 117.17 21.3466C117.15 21.377 117.121 21.4003 117.087 21.413L117.089 21.414ZM117.307 21.597C117.285 21.5673 117.257 21.5426 117.224 21.5245C117.192 21.5064 117.156 21.4953 117.119 21.492C117.174 21.4855 117.228 21.4674 117.276 21.439C117.311 21.4167 117.34 21.3852 117.359 21.3479C117.378 21.3105 117.386 21.2687 117.383 21.227C117.388 21.169 117.374 21.111 117.343 21.0616C117.312 21.0122 117.266 20.9741 117.212 20.953C117.118 20.9224 117.019 20.9095 116.92 20.915H116.539V21.995H116.731V21.569H116.882C116.955 21.5647 117.029 21.5767 117.097 21.604C117.167 21.644 117.197 21.726 117.197 21.851V21.937L117.203 21.971C117.203 21.9763 117.204 21.9807 117.206 21.984V21.994H117.387L117.38 21.982C117.375 21.9629 117.372 21.9436 117.37 21.924V21.764C117.367 21.704 117.347 21.6462 117.311 21.598L117.307 21.597ZM117.79 21.458C117.791 21.57 117.769 21.6811 117.727 21.7848C117.684 21.8884 117.622 21.9826 117.543 22.0619C117.463 22.1411 117.369 22.2039 117.266 22.2465C117.162 22.2891 117.051 22.3107 116.939 22.31C116.827 22.3117 116.716 22.2904 116.612 22.2474C116.509 22.2044 116.415 22.1406 116.337 22.06C116.236 21.9624 116.162 21.8413 116.12 21.7076C116.078 21.5739 116.07 21.4318 116.096 21.2942C116.123 21.1566 116.184 21.0278 116.273 20.9195C116.362 20.8112 116.476 20.7268 116.606 20.674C116.802 20.5934 117.021 20.5879 117.22 20.6586C117.42 20.7293 117.586 20.8711 117.688 21.057C117.755 21.1802 117.79 21.318 117.79 21.458ZM117.93 21.458C117.925 21.2654 117.864 21.0784 117.754 20.92C117.645 20.7616 117.491 20.6386 117.312 20.5662C117.134 20.4938 116.938 20.4751 116.749 20.5123C116.56 20.5496 116.386 20.6412 116.248 20.776C116.064 20.9556 115.957 21.2006 115.952 21.458C115.949 21.5878 115.973 21.7168 116.022 21.8369C116.071 21.9571 116.145 22.0657 116.238 22.156C116.423 22.3412 116.673 22.4458 116.935 22.4469C117.196 22.4481 117.448 22.3456 117.634 22.162L117.64 22.156C117.734 22.0657 117.808 21.9571 117.857 21.8371C117.907 21.717 117.932 21.588 117.93 21.458ZM118.464 22.12H118.29L118.928 20.822H119.101L118.464 22.12ZM120.751 21.97H120.581V21.111L120.274 21.868H120.095L119.787 21.12V21.97H119.618V20.926H119.878L120.184 21.672L120.49 20.926H120.751V21.97ZM121.454 20.926C121.783 20.926 122 21.134 122 21.448C122 21.762 121.783 21.97 121.454 21.97H121.036V20.926H121.454ZM121.206 21.086V21.811H121.454C121.503 21.8159 121.553 21.8099 121.599 21.7934C121.646 21.777 121.688 21.7505 121.723 21.7159C121.758 21.6812 121.785 21.6392 121.802 21.5929C121.82 21.5466 121.826 21.4972 121.822 21.448C121.822 21.236 121.701 21.086 121.454 21.086H121.206Z" fill="white"/>
<path d="M56.135 10.876C50.787 10.778 46.555 9.84596 46.555 8.31696C46.555 6.84696 50.471 5.95396 55.528 5.77696L55.325 4.15796C47.717 4.37496 42.437 5.60696 42.437 7.83196C42.437 10.127 48.087 11.602 56.037 11.724L56.135 10.876Z" fill="#FFD500"/>
<path d="M37.796 7.56C37.796 4.73 45.376 2.407 55.06 2.147L54.801 0C41.343 0.283 30.752 3.285 30.752 6.948V6.95C30.752 10.704 41.877 13.765 55.812 13.915L55.91 12.993C45.822 12.85 37.796 10.473 37.796 7.56ZM58.58 10.876C63.928 10.778 68.159 9.846 68.159 8.317C68.159 6.847 64.244 5.954 59.186 5.777L59.39 4.158C66.997 4.375 72.278 5.607 72.278 7.832C72.278 10.127 66.627 11.602 58.678 11.724L58.58 10.876Z" fill="#FFD500"/>
<path d="M76.9189 7.56C76.9189 4.73 69.3389 2.407 59.6549 2.147L59.9139 0C73.3719 0.283 83.9639 3.285 83.9639 6.948V6.95C83.9639 10.704 72.8379 13.765 58.9039 13.915L58.8049 12.993C68.8929 12.85 76.9189 10.473 76.9189 7.56Z" fill="#FFD500"/>
</g>
<defs>
<clipPath id="clip0_20_313">
<rect width="122" height="34" fill="white"/>
</clipPath>
</defs>
</svg>
